<?xml version="1.0" encoding="UTF-8"?>
<svg id="Layer_1" data-name="Layer 1" xmlns="http://www.w3.org/2000/svg" viewBox="0 0 7057.83 1250">
  <defs>
    <style>
      .cls-1 {
        letter-spacing: 0em;
      }

      .cls-2, .cls-3 {
        fill: #231f20;
      }

      .cls-4 {
        letter-spacing: 0em;
      }

      .cls-3 {
        font-family: MyriadPro-Regular, 'Myriad Pro';
        font-size: 1000px;
      }
    </style>
  </defs>
  <path class="cls-2" d="M579.51,248.74h390.99c16.3,0,29.51,13.21,29.51,29.51v690.99c0,16.3-13.21,29.51-29.51,29.51h-40.99c-16.3,0-29.51-13.21-29.51-29.51V378.25c0-16.3-13.21-29.51-29.51-29.51h-290.99c-16.3,0-29.51,13.21-29.51,29.51v590.99c0,16.3-13.21,29.51-29.51,29.51h-40.99c-16.3,0-29.51-13.21-29.51-29.51V378.25c0-16.3-13.21-29.51-29.51-29.51H129.51c-16.3,0-29.51,13.21-29.51,29.51v590.99c0,16.3-13.21,29.51-29.51,29.51H29.51c-16.3,0-29.51-13.21-29.51-29.51V278.25c0-16.3,13.21-29.51,29.51-29.51h390.99"/>
  <text class="cls-3" transform="translate(1090.5301 1000.002)"><tspan x="0" y="0">i</tspan><tspan class="cls-4" x="233.99" y="0">g</tspan><tspan class="cls-1" x="786.99" y="0">r</tspan><tspan x="1108.99" y="0">aine</tspan></text>
  <g>
    <path class="cls-2" d="M4336.28,379.51v590.99c0,16.3-13.21,29.51-29.51,29.51h-40.99c-16.3,0-29.51-13.21-29.51-29.51V379.51"/>
    <path class="cls-2" d="M4236.28,220.49v-90.99c0-16.3-13.21-29.51-29.51-29.51h-390.99c-16.3,0-29.51-13.21-29.51-29.51V29.51c0-16.3,13.21-29.51,29.51-29.51h940.99c16.3,0,29.51,13.21,29.51,29.51v40.99c0,16.3-13.21,29.51-29.51,29.51h-390.99c-16.3,0-29.51,13.21-29.51,29.51v90.99"/>
  </g>
  <text class="cls-3" transform="translate(4431.8409 1000.0001)"><tspan class="cls-1" x="0" y="0">r</tspan><tspan x="322.01" y="0">acker</tspan></text>
  <text class="cls-3" transform="translate(1090.5301 1000.002)"><tspan x="0" y="0">i</tspan><tspan class="cls-4" x="233.99" y="0">g</tspan><tspan class="cls-1" x="786.99" y="0">r</tspan><tspan x="1108.99" y="0">aine</tspan></text>
</svg>