<svg xmlns="http://www.w3.org/2000/svg" id="Layer_1" data-name="Layer 1" viewBox="0 0 1000 1000" width="1000" height="1000"><metadata><rdf:RDF xmlns:rdf="http://www.w3.org/1999/02/22-rdf-syntax-ns#" xmlns:dc="http://purl.org/dc/elements/1.1/"><rdf:Description><dc:creator>RealFaviconGenerator</dc:creator><dc:source>https://realfavicongenerator.net</dc:source></rdf:Description></rdf:RDF></metadata><defs>
    <style>
      .cls-1 {
        fill: #231f20;
      }
    </style>
  </defs><path class="cls-1" d="M0,970.49V279.51c0-16.3,13.21-29.51,29.51-29.51h390.99c16.3,0,29.51-13.21,29.51-29.51v-90.99c0-16.3-13.21-29.51-29.51-29.51H29.51c-16.3,0-29.51-13.21-29.51-29.51V29.51C0,13.21,13.21,0,29.51,0h940.99c16.3,0,29.51,13.21,29.51,29.51v40.99c0,16.3-13.21,29.51-29.51,29.51h-390.99c-16.3,0-29.51,13.21-29.51,29.51v90.99c0,16.3,13.21,29.51,29.51,29.51h390.99c16.3,0,29.51,13.21,29.51,29.51v690.99c0,16.3-13.21,29.51-29.51,29.51h-40.99c-16.3,0-29.51-13.21-29.51-29.51V379.51c0-16.3-13.21-29.51-29.51-29.51h-290.99c-16.3,0-29.51,13.21-29.51,29.51v590.99c0,16.3-13.21,29.51-29.51,29.51h-40.99c-16.3,0-29.51-13.21-29.51-29.51V379.51c0-16.3-13.21-29.51-29.51-29.51H129.51c-16.3,0-29.51,13.21-29.51,29.51v590.99c0,16.3-13.21,29.51-29.51,29.51H29.51c-16.3,0-29.51-13.21-29.51-29.51Z"></path><style>@media (prefers-color-scheme: light) { :root { filter: none; } }
@media (prefers-color-scheme: dark) { :root { filter: invert(100%); } }
</style></svg>